<svg xmlns="http://www.w3.org/2000/svg" width="1200" height="300" viewBox="0 0 1200 300"><title>Ribbit deterministic generative mark</title><rect width="1200" height="300" fill="#0a0d0b"/><path d="M1200 0 L116.0 0.0 L120.4 6.3 L124.9 12.5 L128.4 18.8 L129.9 25.0 L129.2 31.3 L127.0 37.5 L124.2 43.8 L122.4 50.0 L122.3 56.3 L124.0 62.5 L126.6 68.8 L129.1 75.0 L130.3 81.3 L129.8 87.5 L127.8 93.8 L125.0 100.0 L122.2 106.3 L119.8 112.5 L117.8 118.8 L115.7 125.0 L113.3 131.3 L110.4 137.5 L107.5 143.8 L105.5 150.0 L105.3 156.3 L107.4 162.5 L111.3 168.8 L116.0 175.0 L120.1 181.3 L122.6 187.5 L122.9 193.8 L121.6 200.0 L119.8 206.3 L118.7 212.5 L119.1 218.8 L121.1 225.0 L124.0 231.3 L126.9 237.5 L129.0 243.8 L130.0 250.0 L130.1 256.3 L129.9 262.5 L129.8 268.8 L129.7 275.0 L129.2 281.3 L127.7 287.5 L124.6 293.8 L120.0 300.0 L1200 300 Z" fill="#86c765"/><path d="M1200 0 L245.5 0.0 L242.9 6.3 L239.0 12.5 L235.5 18.8 L233.9 25.0 L234.8 31.3 L237.6 37.5 L241.2 43.8 L244.9 50.0 L248.1 56.3 L251.0 62.5 L253.9 68.8 L256.6 75.0 L258.5 81.3 L258.9 87.5 L257.2 93.8 L254.0 100.0 L250.5 106.3 L248.2 112.5 L248.0 118.8 L249.7 125.0 L251.8 131.3 L252.6 137.5 L250.6 143.8 L245.6 150.0 L239.1 156.3 L233.3 162.5 L230.2 168.8 L230.8 175.0 L234.4 181.3 L239.4 187.5 L243.9 193.8 L246.8 200.0 L248.0 206.3 L248.3 212.5 L248.6 218.8 L249.6 225.0 L251.1 231.3 L252.7 237.5 L253.7 243.8 L254.1 250.0 L254.5 256.3 L255.3 262.5 L256.4 268.8 L257.3 275.0 L256.8 281.3 L253.8 287.5 L248.5 293.8 L241.9 300.0 L1200 300 Z" fill="#5c9e63"/><path d="M1200 0 L378.0 0.0 L385.0 6.3 L389.4 12.5 L390.8 18.8 L389.4 25.0 L386.2 31.3 L382.2 37.5 L378.2 43.8 L374.4 50.0 L370.6 56.3 L366.3 62.5 L361.5 68.8 L356.8 75.0 L353.4 81.3 L352.6 87.5 L355.8 93.8 L363.2 100.0 L373.9 106.3 L386.0 112.5 L396.7 118.8 L403.5 125.0 L404.6 131.3 L399.7 137.5 L389.8 143.8 L377.2 150.0 L364.8 156.3 L354.7 162.5 L348.7 168.8 L347.1 175.0 L349.3 181.3 L354.3 187.5 L360.9 193.8 L368.3 200.0 L376.1 206.3 L383.9 212.5 L391.2 218.8 L397.4 225.0 L401.0 231.3 L401.0 237.5 L396.3 243.8 L387.0 250.0 L374.4 256.3 L360.7 262.5 L348.9 268.8 L341.5 275.0 L340.3 281.3 L345.5 287.5 L355.9 293.8 L368.9 300.0 L1200 300 Z" fill="#5c9e63"/><path d="M1200 0 L495.0 0.0 L498.7 6.3 L501.7 12.5 L505.2 18.8 L509.6 25.0 L513.4 31.3 L514.0 37.5 L510.8 43.8 L505.9 50.0 L503.0 56.3 L504.4 62.5 L509.1 68.8 L513.0 75.0 L512.8 81.3 L508.1 87.5 L501.5 93.8 L496.1 100.0 L493.1 106.3 L491.4 112.5 L489.7 118.8 L488.0 125.0 L488.0 131.3 L490.8 137.5 L495.3 143.8 L498.4 150.0 L497.7 156.3 L493.9 162.5 L490.4 168.8 L490.9 175.0 L496.4 181.3 L504.4 187.5 L510.8 193.8 L513.5 200.0 L513.1 206.3 L511.9 212.5 L511.3 218.8 L510.7 225.0 L508.7 231.3 L505.3 237.5 L502.3 243.8 L502.0 250.0 L504.6 256.3 L507.2 262.5 L506.4 268.8 L500.8 275.0 L492.5 281.3 L485.8 287.5 L483.9 293.8 L486.2 300.0 L1200 300 Z" fill="#3a6b45"/><path d="M1200 0 L628.9 0.0 L631.9 6.3 L638.0 12.5 L646.2 18.8 L652.1 25.0 L650.6 31.3 L640.4 37.5 L625.4 43.8 L612.3 50.0 L605.8 56.3 L606.1 62.5 L609.7 68.8 L613.6 75.0 L617.5 81.3 L623.2 87.5 L631.5 93.8 L640.0 100.0 L644.5 106.3 L642.7 112.5 L636.4 118.8 L630.8 125.0 L629.8 131.3 L633.1 137.5 L636.1 143.8 L634.2 150.0 L626.7 156.3 L617.0 162.5 L610.1 168.8 L608.4 175.0 L610.7 181.3 L614.2 187.5 L617.9 193.8 L623.3 200.0 L632.4 206.3 L644.1 212.5 L653.6 218.8 L655.6 225.0 L648.3 231.3 L635.2 237.5 L622.9 243.8 L616.0 250.0 L614.8 256.3 L615.9 262.5 L616.0 268.8 L615.1 275.0 L615.7 281.3 L619.7 287.5 L625.8 293.8 L630.6 300.0 L1200 300 Z" fill="#3a6b45"/><path d="M1200 0 L717.3 0.0 L720.1 6.3 L731.2 12.5 L745.3 18.8 L755.3 25.0 L756.9 31.3 L751.3 37.5 L744.3 43.8 L742.5 50.0 L749.0 56.3 L761.7 62.5 L774.9 68.8 L783.6 75.0 L785.6 81.3 L782.7 87.5 L778.0 93.8 L773.4 100.0 L768.7 106.3 L762.7 112.5 L755.5 118.8 L749.0 125.0 L745.9 131.3 L747.3 137.5 L750.8 143.8 L751.7 150.0 L746.3 156.3 L734.8 162.5 L722.2 168.8 L715.4 175.0 L719.0 181.3 L732.0 187.5 L748.5 193.8 L761.2 200.0 L765.8 206.3 L763.4 212.5 L758.8 218.8 L757.2 225.0 L760.7 231.3 L767.5 237.5 L774.2 243.8 L778.1 250.0 L779.2 256.3 L778.8 262.5 L777.7 268.8 L774.9 275.0 L768.3 281.3 L757.2 287.5 L744.0 293.8 L733.6 300.0 L1200 300 Z" fill="#25412c"/><path d="M1200 0 L881.2 0.0 L878.8 6.3 L876.3 12.5 L874.7 18.8 L873.9 25.0 L872.7 31.3 L869.9 37.5 L865.9 43.8 L862.8 50.0 L863.5 56.3 L869.4 62.5 L879.4 68.8 L889.6 75.0 L896.0 81.3 L896.6 87.5 L892.6 93.8 L887.6 100.0 L885.3 106.3 L886.8 112.5 L890.8 118.8 L894.1 125.0 L894.3 131.3 L891.1 137.5 L885.8 143.8 L880.4 150.0 L875.8 156.3 L871.8 162.5 L867.8 168.8 L864.2 175.0 L862.4 181.3 L864.0 187.5 L869.6 193.8 L877.0 200.0 L883.1 206.3 L885.1 212.5 L883.0 218.8 L879.3 225.0 L877.8 231.3 L881.1 237.5 L888.7 243.8 L897.1 250.0 L902.4 256.3 L902.2 262.5 L897.2 268.8 L890.0 275.0 L883.5 281.3 L879.2 287.5 L876.6 293.8 L874.4 300.0 L1200 300 Z" fill="#25412c"/><path d="M1200 0 L1015.8 0.0 L1020.3 6.3 L1022.0 12.5 L1020.8 18.8 L1018.9 25.0 L1018.3 31.3 L1019.1 37.5 L1019.1 43.8 L1016.5 50.0 L1011.4 56.3 L1006.1 62.5 L1003.1 68.8 L1002.4 75.0 L1002.2 81.3 L1000.5 87.5 L997.2 93.8 L994.5 100.0 L994.7 106.3 L997.8 112.5 L1001.5 118.8 L1003.5 125.0 L1003.7 131.3 L1003.9 137.5 L1006.2 143.8 L1010.6 150.0 L1014.8 156.3 L1016.6 162.5 L1015.7 168.8 L1014.0 175.0 L1014.0 181.3 L1015.7 187.5 L1017.3 193.8 L1016.4 200.0 L1013.1 206.3 L1009.4 212.5 L1007.6 218.8 L1008.1 225.0 L1009.1 231.3 L1008.2 237.5 L1005.2 243.8 L1002.2 250.0 L1001.3 256.3 L1003.0 262.5 L1005.2 268.8 L1005.6 275.0 L1003.8 281.3 L1001.7 287.5 L1001.7 293.8 L1004.1 300.0 L1200 300 Z" fill="#16241a"/><rect width="1200" height="300" fill="#0a0d0b" opacity="0.32"/><text x="60" y="150" font-family="'Geist Mono',ui-monospace,monospace" font-size="72" font-weight="600" letter-spacing="-3" fill="#e8f0e4">ribbit<tspan fill="#5c9e63">.</tspan></text><text x="64" y="192" font-family="'Geist Mono',ui-monospace,monospace" font-size="20" fill="#8b9a8a">deterministic generative marks from any seed</text></svg>