<svg xmlns="http://www.w3.org/2000/svg" width="64" height="64" viewBox="0 0 64 64"><title>Ribbit mark</title><defs><clipPath id="ribbit-circle-71274a95-64-64"><circle cx="32" cy="32" r="32"/></clipPath></defs><g clip-path="url(#ribbit-circle-71274a95-64-64)"><rect width="64" height="64" fill="#0a0d0b"/><path d="M64 0 L5.5 0.0 L6.5 1.3 L7.5 2.7 L8.2 4.0 L8.5 5.3 L8.4 6.7 L7.9 8.0 L7.3 9.3 L6.9 10.7 L6.9 12.0 L7.2 13.3 L7.8 14.7 L8.3 16.0 L8.6 17.3 L8.5 18.7 L8.1 20.0 L7.5 21.3 L6.9 22.7 L6.4 24.0 L5.9 25.3 L5.5 26.7 L5.0 28.0 L4.3 29.3 L3.7 30.7 L3.3 32.0 L3.3 33.3 L3.7 34.7 L4.5 36.0 L5.6 37.3 L6.4 38.7 L6.9 40.0 L7.0 41.3 L6.7 42.7 L6.4 44.0 L6.1 45.3 L6.2 46.7 L6.6 48.0 L7.2 49.3 L7.9 50.7 L8.3 52.0 L8.5 53.3 L8.6 54.7 L8.5 56.0 L8.5 57.3 L8.5 58.7 L8.4 60.0 L8.0 61.3 L7.4 62.7 L6.4 64.0 L64 64 Z" fill="#86c765"/><path d="M64 0 L12.9 0.0 L12.3 1.3 L11.5 2.7 L10.7 4.0 L10.4 5.3 L10.6 6.7 L11.2 8.0 L12.0 9.3 L12.7 10.7 L13.4 12.0 L14.1 13.3 L14.7 14.7 L15.2 16.0 L15.7 17.3 L15.7 18.7 L15.4 20.0 L14.7 21.3 L13.9 22.7 L13.5 24.0 L13.4 25.3 L13.8 26.7 L14.2 28.0 L14.4 29.3 L14.0 30.7 L12.9 32.0 L11.5 33.3 L10.3 34.7 L9.6 36.0 L9.7 37.3 L10.5 38.7 L11.6 40.0 L12.5 41.3 L13.2 42.7 L13.4 44.0 L13.5 45.3 L13.5 46.7 L13.8 48.0 L14.1 49.3 L14.4 50.7 L14.6 52.0 L14.7 53.3 L14.8 54.7 L15.0 56.0 L15.2 57.3 L15.4 58.7 L15.3 60.0 L14.7 61.3 L13.5 62.7 L12.1 64.0 L64 64 Z" fill="#5c9e63"/><path d="M64 0 L20.8 0.0 L22.3 1.3 L23.3 2.7 L23.6 4.0 L23.3 5.3 L22.6 6.7 L21.7 8.0 L20.9 9.3 L20.1 10.7 L19.3 12.0 L18.3 13.3 L17.3 14.7 L16.3 16.0 L15.6 17.3 L15.4 18.7 L16.1 20.0 L17.7 21.3 L20.0 22.7 L22.6 24.0 L24.8 25.3 L26.3 26.7 L26.5 28.0 L25.5 29.3 L23.4 30.7 L20.7 32.0 L18.0 33.3 L15.9 34.7 L14.6 36.0 L14.3 37.3 L14.7 38.7 L15.8 40.0 L17.2 41.3 L18.8 42.7 L20.4 44.0 L22.1 45.3 L23.7 46.7 L25.0 48.0 L25.8 49.3 L25.7 50.7 L24.8 52.0 L22.8 53.3 L20.1 54.7 L17.2 56.0 L14.6 57.3 L13.1 58.7 L12.8 60.0 L13.9 61.3 L16.1 62.7 L18.9 64.0 L64 64 Z" fill="#5c9e63"/><path d="M64 0 L25.5 0.0 L26.3 1.3 L26.9 2.7 L27.7 4.0 L28.6 5.3 L29.4 6.7 L29.6 8.0 L28.9 9.3 L27.8 10.7 L27.2 12.0 L27.5 13.3 L28.5 14.7 L29.4 16.0 L29.3 17.3 L28.3 18.7 L26.9 20.0 L25.7 21.3 L25.1 22.7 L24.7 24.0 L24.4 25.3 L24.0 26.7 L24.0 28.0 L24.6 29.3 L25.6 30.7 L26.2 32.0 L26.1 33.3 L25.3 34.7 L24.5 36.0 L24.6 37.3 L25.8 38.7 L27.5 40.0 L28.9 41.3 L29.4 42.7 L29.4 44.0 L29.1 45.3 L29.0 46.7 L28.9 48.0 L28.4 49.3 L27.7 50.7 L27.1 52.0 L27.0 53.3 L27.6 54.7 L28.1 56.0 L27.9 57.3 L26.7 58.7 L25.0 60.0 L23.6 61.3 L23.1 62.7 L23.6 64.0 L64 64 Z" fill="#3a6b45"/><path d="M64 0 L33.8 0.0 L34.4 1.3 L35.7 2.7 L37.5 4.0 L38.7 5.3 L38.4 6.7 L36.2 8.0 L33.0 9.3 L30.2 10.7 L28.9 12.0 L28.9 13.3 L29.7 14.7 L30.5 16.0 L31.3 17.3 L32.6 18.7 L34.3 20.0 L36.2 21.3 L37.1 22.7 L36.7 24.0 L35.4 25.3 L34.2 26.7 L34.0 28.0 L34.7 29.3 L35.3 30.7 L34.9 32.0 L33.3 33.3 L31.2 34.7 L29.8 36.0 L29.4 37.3 L29.9 38.7 L30.6 40.0 L31.4 41.3 L32.6 42.7 L34.5 44.0 L37.0 45.3 L39.0 46.7 L39.5 48.0 L37.9 49.3 L35.1 50.7 L32.5 52.0 L31.0 53.3 L30.8 54.7 L31.0 56.0 L31.0 57.3 L30.8 58.7 L31.0 60.0 L31.8 61.3 L33.1 62.7 L34.1 64.0 L64 64 Z" fill="#3a6b45"/><path d="M64 0 L32.3 0.0 L32.9 1.3 L35.3 2.7 L38.3 4.0 L40.4 5.3 L40.8 6.7 L39.6 8.0 L38.1 9.3 L37.7 10.7 L39.1 12.0 L41.8 13.3 L44.6 14.7 L46.5 16.0 L46.9 17.3 L46.3 18.7 L45.3 20.0 L44.3 21.3 L43.3 22.7 L42.0 24.0 L40.5 25.3 L39.1 26.7 L38.4 28.0 L38.7 29.3 L39.5 30.7 L39.7 32.0 L38.5 33.3 L36.1 34.7 L33.4 36.0 L31.9 37.3 L32.7 38.7 L35.5 40.0 L39.0 41.3 L41.7 42.7 L42.7 44.0 L42.2 45.3 L41.2 46.7 L40.9 48.0 L41.6 49.3 L43.1 50.7 L44.5 52.0 L45.3 53.3 L45.5 54.7 L45.5 56.0 L45.2 57.3 L44.6 58.7 L43.2 60.0 L40.9 61.3 L38.0 62.7 L35.8 64.0 L64 64 Z" fill="#25412c"/><path d="M64 0 L47.0 0.0 L46.5 1.3 L46.0 2.7 L45.6 4.0 L45.5 5.3 L45.2 6.7 L44.6 8.0 L43.7 9.3 L43.1 10.7 L43.2 12.0 L44.5 13.3 L46.6 14.7 L48.8 16.0 L50.2 17.3 L50.3 18.7 L49.4 20.0 L48.4 21.3 L47.9 22.7 L48.2 24.0 L49.1 25.3 L49.8 26.7 L49.8 28.0 L49.1 29.3 L48.0 30.7 L46.8 32.0 L45.9 33.3 L45.0 34.7 L44.2 36.0 L43.4 37.3 L43.0 38.7 L43.3 40.0 L44.5 41.3 L46.1 42.7 L47.4 44.0 L47.8 45.3 L47.4 46.7 L46.6 48.0 L46.3 49.3 L47.0 50.7 L48.6 52.0 L50.4 53.3 L51.5 54.7 L51.5 56.0 L50.4 57.3 L48.9 58.7 L47.5 60.0 L46.6 61.3 L46.0 62.7 L45.6 64.0 L64 64 Z" fill="#25412c"/><path d="M64 0 L55.4 0.0 L56.4 1.3 L56.7 2.7 L56.5 4.0 L56.1 5.3 L56.0 6.7 L56.1 8.0 L56.1 9.3 L55.6 10.7 L54.5 12.0 L53.4 13.3 L52.7 14.7 L52.6 16.0 L52.5 17.3 L52.2 18.7 L51.4 20.0 L50.9 21.3 L50.9 22.7 L51.6 24.0 L52.4 25.3 L52.8 26.7 L52.8 28.0 L52.9 29.3 L53.4 30.7 L54.3 32.0 L55.2 33.3 L55.6 34.7 L55.4 36.0 L55.1 37.3 L55.0 38.7 L55.4 40.0 L55.7 41.3 L55.6 42.7 L54.8 44.0 L54.0 45.3 L53.7 46.7 L53.8 48.0 L54.0 49.3 L53.8 50.7 L53.2 52.0 L52.5 53.3 L52.3 54.7 L52.7 56.0 L53.2 57.3 L53.2 58.7 L52.9 60.0 L52.4 61.3 L52.4 62.7 L52.9 64.0 L64 64 Z" fill="#16241a"/></g></svg>