<svg xmlns="http://www.w3.org/2000/svg" width="1200" height="630" viewBox="0 0 1200 630"><rect width="1200" height="630" fill="#0a0d0b"/><path d="M0 630 L0.0 87.7 L25.0 79.7 L50.0 75.9 L75.0 75.3 L100.0 74.8 L125.0 71.4 L150.0 64.1 L175.0 55.0 L200.0 49.0 L225.0 51.8 L250.0 67.0 L275.0 94.2 L300.0 128.1 L325.0 160.1 L350.0 181.4 L375.0 186.4 L400.0 174.6 L425.0 150.7 L450.0 122.8 L475.0 98.6 L500.0 83.1 L525.0 76.9 L550.0 76.8 L575.0 78.3 L600.0 77.5 L625.0 73.4 L650.0 67.8 L675.0 63.6 L700.0 63.5 L725.0 68.2 L750.0 76.4 L775.0 85.4 L800.0 93.4 L825.0 100.5 L850.0 108.3 L875.0 119.3 L900.0 134.7 L925.0 152.7 L950.0 168.5 L975.0 175.9 L1000.0 169.8 L1025.0 148.8 L1050.0 116.5 L1075.0 80.7 L1100.0 50.6 L1125.0 33.4 L1150.0 32.0 L1175.0 43.8 L1200.0 62.1 L1200 630 Z" fill="#16241a"/><path d="M0 630 L0.0 193.3 L25.0 179.4 L50.0 160.3 L75.0 139.3 L100.0 123.0 L125.0 118.4 L150.0 129.6 L175.0 155.3 L200.0 188.2 L225.0 217.7 L250.0 234.8 L275.0 235.3 L300.0 221.6 L325.0 200.8 L350.0 181.2 L375.0 168.3 L400.0 162.8 L425.0 161.8 L450.0 161.2 L475.0 158.7 L500.0 155.1 L525.0 153.2 L550.0 156.1 L575.0 164.3 L600.0 176.0 L625.0 187.5 L650.0 195.9 L675.0 200.6 L700.0 203.0 L725.0 205.2 L750.0 207.5 L775.0 207.7 L800.0 202.0 L825.0 187.5 L850.0 164.8 L875.0 139.4 L900.0 120.0 L925.0 114.5 L950.0 126.7 L975.0 153.5 L1000.0 186.5 L1025.0 215.0 L1050.0 230.9 L1075.0 231.7 L1100.0 220.5 L1125.0 203.8 L1150.0 188.1 L1175.0 176.4 L1200.0 168.7 L1200 630 Z" fill="#25412c"/><path d="M0 630 L0.0 234.7 L25.0 248.0 L50.0 258.9 L75.0 268.0 L100.0 276.5 L125.0 285.2 L150.0 293.1 L175.0 297.9 L200.0 296.6 L225.0 287.9 L250.0 272.6 L275.0 254.3 L300.0 237.8 L325.0 227.2 L350.0 224.4 L375.0 228.3 L400.0 235.7 L425.0 242.7 L450.0 246.7 L475.0 247.4 L500.0 247.0 L525.0 248.0 L550.0 252.4 L575.0 260.2 L600.0 269.1 L625.0 276.3 L650.0 279.1 L675.0 277.2 L700.0 272.3 L725.0 267.2 L750.0 264.5 L775.0 264.7 L800.0 266.1 L825.0 265.8 L850.0 260.8 L875.0 250.5 L900.0 236.7 L925.0 223.3 L950.0 215.0 L975.0 214.7 L1000.0 222.9 L1025.0 237.0 L1050.0 253.1 L1075.0 267.4 L1100.0 277.8 L1125.0 284.4 L1150.0 288.5 L1175.0 291.6 L1200.0 293.6 L1200 630 Z" fill="#25412c"/><path d="M0 630 L0.0 348.1 L25.0 343.4 L50.0 345.2 L75.0 350.6 L100.0 352.9 L125.0 348.0 L150.0 338.6 L175.0 331.5 L200.0 330.9 L225.0 333.9 L250.0 333.5 L275.0 325.2 L300.0 311.8 L325.0 301.5 L350.0 300.7 L375.0 308.9 L400.0 319.8 L425.0 327.5 L450.0 332.0 L475.0 338.4 L500.0 350.9 L525.0 367.3 L550.0 379.4 L575.0 379.9 L600.0 368.2 L625.0 351.1 L650.0 336.5 L675.0 327.3 L700.0 319.8 L725.0 309.5 L750.0 296.8 L775.0 288.1 L800.0 290.3 L825.0 304.4 L850.0 323.9 L875.0 339.5 L900.0 347.1 L925.0 349.6 L950.0 353.1 L975.0 359.8 L1000.0 365.8 L1025.0 364.6 L1050.0 354.1 L1075.0 339.4 L1100.0 328.8 L1125.0 326.8 L1150.0 330.4 L1175.0 332.2 L1200.0 327.6 L1200 630 Z" fill="#3a6b45"/><path d="M0 630 L0.0 418.6 L25.0 424.9 L50.0 431.3 L75.0 438.2 L100.0 445.1 L125.0 449.8 L150.0 449.6 L175.0 442.5 L200.0 428.7 L225.0 410.6 L250.0 392.1 L275.0 377.5 L300.0 369.7 L325.0 369.4 L350.0 375.1 L375.0 383.8 L400.0 393.0 L425.0 401.3 L450.0 408.8 L475.0 416.6 L500.0 425.6 L525.0 435.4 L550.0 444.1 L575.0 448.9 L600.0 447.6 L625.0 439.3 L650.0 425.7 L675.0 410.2 L700.0 396.9 L725.0 389.0 L750.0 387.5 L775.0 391.3 L800.0 397.7 L825.0 403.7 L850.0 407.9 L875.0 410.1 L900.0 411.8 L925.0 414.4 L950.0 418.4 L975.0 422.9 L1000.0 425.7 L1025.0 424.6 L1050.0 418.5 L1075.0 408.3 L1100.0 397.1 L1125.0 388.5 L1150.0 385.6 L1175.0 389.6 L1200.0 399.3 L1200 630 Z" fill="#5c9e63"/><path d="M0 630 L0.0 442.8 L25.0 440.9 L50.0 452.8 L75.0 473.9 L100.0 495.1 L125.0 509.3 L150.0 516.0 L175.0 520.0 L200.0 524.7 L225.0 528.2 L250.0 524.7 L275.0 510.1 L300.0 487.5 L325.0 465.7 L350.0 453.2 L375.0 452.3 L400.0 458.2 L425.0 464.4 L450.0 468.5 L475.0 473.9 L500.0 485.2 L525.0 502.6 L550.0 519.5 L575.0 527.9 L600.0 524.0 L625.0 511.7 L650.0 499.2 L675.0 491.9 L700.0 488.8 L725.0 484.4 L750.0 475.5 L775.0 464.7 L800.0 458.9 L825.0 463.0 L850.0 475.5 L875.0 488.7 L900.0 495.8 L925.0 495.8 L950.0 493.9 L975.0 496.2 L1000.0 503.4 L1025.0 510.3 L1050.0 510.5 L1075.0 502.4 L1100.0 491.2 L1125.0 484.0 L1150.0 483.9 L1175.0 487.2 L1200.0 487.2 L1200 630 Z" fill="#5c9e63"/><path d="M0 630 L0.0 563.2 L25.0 564.5 L50.0 561.3 L75.0 554.9 L100.0 548.0 L125.0 543.3 L150.0 542.1 L175.0 543.9 L200.0 546.9 L225.0 548.9 L250.0 549.3 L275.0 548.9 L300.0 550.1 L325.0 555.1 L350.0 564.8 L375.0 577.9 L400.0 591.3 L425.0 601.6 L450.0 606.3 L475.0 605.0 L500.0 599.7 L525.0 593.2 L550.0 587.9 L575.0 584.7 L600.0 582.6 L625.0 579.5 L650.0 574.0 L675.0 566.2 L700.0 557.7 L725.0 551.3 L750.0 549.1 L775.0 551.5 L800.0 556.9 L825.0 562.0 L850.0 563.9 L875.0 561.2 L900.0 554.8 L925.0 547.2 L950.0 541.6 L975.0 539.8 L1000.0 541.8 L1025.0 546.1 L1050.0 550.3 L1075.0 553.0 L1100.0 554.5 L1125.0 556.7 L1150.0 561.6 L1175.0 570.5 L1200.0 582.6 L1200 630 Z" fill="#86c765"/><rect width="1200" height="630" fill="#0a0d0b" opacity="0.28"/><text x="80" y="330" font-family="'Geist Mono',ui-monospace,monospace" font-size="150" font-weight="600" letter-spacing="-6" fill="#e8f0e4">ribbit<tspan fill="#5c9e63">.</tspan></text><text x="86" y="392" font-family="'Geist Mono',ui-monospace,monospace" font-size="30" fill="#8b9a8a">deterministic generative marks from any seed</text></svg>