<svg xmlns="http://www.w3.org/2000/svg" width="1200" height="630" viewBox="0 0 1200 630"><title>Ribbit deterministic generative mark</title><rect width="1200" height="630" fill="#0a0d0b"/><path d="M1200 0 L111.6 0.0 L120.8 13.1 L130.4 26.3 L137.7 39.4 L140.9 52.5 L139.4 65.6 L134.6 78.8 L128.9 91.9 L125.1 105.0 L124.9 118.1 L128.3 131.3 L133.8 144.4 L139.0 157.5 L141.6 170.6 L140.6 183.8 L136.4 196.9 L130.5 210.0 L124.6 223.1 L119.6 236.3 L115.3 249.4 L111.1 262.5 L105.9 275.6 L99.7 288.8 L93.7 301.9 L89.5 315.0 L89.2 328.1 L93.6 341.3 L101.8 354.4 L111.6 367.5 L120.3 380.6 L125.4 393.8 L126.1 406.9 L123.4 420.0 L119.6 433.1 L117.3 446.3 L118.2 459.4 L122.3 472.5 L128.3 485.6 L134.4 498.8 L138.8 511.9 L140.9 525.0 L141.2 538.1 L140.8 551.3 L140.5 564.4 L140.4 577.5 L139.4 590.6 L136.2 603.8 L129.6 616.9 L120.0 630.0 L1200 630 Z" fill="#86c765"/><path d="M1200 0 L244.1 0.0 L238.5 13.1 L230.3 26.3 L223.0 39.4 L219.7 52.5 L221.5 65.6 L227.3 78.8 L235.0 91.9 L242.7 105.0 L249.4 118.1 L255.6 131.3 L261.6 144.4 L267.3 157.5 L271.3 170.6 L272.0 183.8 L268.6 196.9 L261.9 210.0 L254.6 223.1 L249.7 236.3 L249.3 249.4 L252.8 262.5 L257.3 275.6 L258.9 288.8 L254.6 301.9 L244.2 315.0 L230.6 328.1 L218.4 341.3 L212.0 354.4 L213.1 367.5 L220.7 380.6 L231.2 393.8 L240.7 406.9 L246.8 420.0 L249.3 433.1 L249.9 446.3 L250.6 459.4 L252.7 472.5 L255.9 485.6 L259.0 498.8 L261.1 511.9 L262.1 525.0 L262.9 538.1 L264.5 551.3 L267.0 564.4 L268.8 577.5 L267.6 590.6 L261.5 603.8 L250.3 616.9 L236.4 630.0 L1200 630 Z" fill="#5c9e63"/><path d="M1200 0 L382.7 0.0 L397.3 13.1 L406.7 26.3 L409.6 39.4 L406.7 52.5 L399.9 65.6 L391.6 78.8 L383.2 91.9 L375.2 105.0 L367.1 118.1 L358.1 131.3 L348.1 144.4 L338.2 157.5 L331.0 170.6 L329.4 183.8 L336.0 196.9 L351.5 210.0 L374.1 223.1 L399.5 236.3 L422.1 249.4 L436.4 262.5 L438.7 275.6 L428.2 288.8 L407.5 301.9 L381.1 315.0 L354.9 328.1 L333.9 341.3 L321.2 354.4 L317.8 367.5 L322.5 380.6 L332.9 393.8 L346.8 406.9 L362.4 420.0 L378.7 433.1 L395.0 446.3 L410.5 459.4 L423.4 472.5 L431.1 485.6 L431.0 498.8 L421.2 511.9 L401.7 525.0 L375.2 538.1 L346.4 551.3 L321.5 564.4 L306.0 577.5 L303.5 590.6 L314.5 603.8 L336.3 616.9 L363.6 630.0 L1200 630 Z" fill="#5c9e63"/><path d="M1200 0 L488.9 0.0 L496.7 13.1 L503.0 26.3 L510.3 39.4 L519.6 52.5 L527.5 65.6 L528.9 78.8 L522.1 91.9 L511.7 105.0 L505.6 118.1 L508.7 131.3 L518.4 144.4 L526.7 157.5 L526.3 170.6 L516.5 183.8 L502.5 196.9 L491.2 210.0 L484.9 223.1 L481.4 236.3 L477.8 249.4 L474.2 262.5 L474.1 275.6 L480.0 288.8 L489.4 301.9 L496.0 315.0 L494.6 328.1 L486.6 341.3 L479.2 354.4 L480.3 367.5 L491.9 380.6 L508.6 393.8 L522.1 406.9 L527.6 420.0 L526.8 433.1 L524.3 446.3 L523.1 459.4 L521.9 472.5 L517.7 485.6 L510.4 498.8 L504.2 511.9 L503.6 525.0 L509.0 538.1 L514.6 551.3 L512.9 564.4 L501.0 577.5 L483.6 590.6 L469.6 603.8 L465.5 616.9 L470.5 630.0 L1200 630 Z" fill="#3a6b45"/><path d="M1200 0 L630.6 0.0 L636.9 13.1 L649.6 26.3 L666.9 39.4 L679.3 52.5 L676.1 65.6 L654.6 78.8 L623.1 91.9 L595.6 105.0 L582.0 118.1 L582.6 131.3 L590.2 144.4 L598.3 157.5 L606.5 170.6 L618.6 183.8 L636.1 196.9 L653.9 210.0 L663.3 223.1 L659.5 236.3 L646.4 249.4 L634.6 262.5 L632.5 275.6 L639.2 288.8 L645.5 301.9 L641.7 315.0 L625.8 328.1 L605.5 341.3 L591.0 354.4 L587.6 367.5 L592.4 380.6 L599.7 393.8 L607.4 406.9 L618.8 420.0 L637.9 433.1 L662.4 446.3 L682.4 459.4 L686.6 472.5 L671.2 485.6 L643.8 498.8 L617.8 511.9 L603.5 525.0 L601.0 538.1 L603.2 551.3 L603.4 564.4 L601.5 577.5 L602.8 590.6 L611.1 603.8 L624.0 616.9 L634.1 630.0 L1200 630 Z" fill="#3a6b45"/><path d="M1200 0 L676.7 0.0 L682.4 13.1 L705.8 26.3 L735.3 39.4 L756.4 52.5 L759.8 65.6 L748.0 78.8 L733.3 91.9 L729.6 105.0 L743.2 118.1 L769.8 131.3 L797.6 144.4 L815.8 157.5 L820.1 170.6 L814.0 183.8 L804.1 196.9 L794.4 210.0 L784.5 223.1 L772.0 236.3 L756.8 249.4 L743.1 262.5 L736.7 275.6 L739.7 288.8 L747.0 301.9 L748.9 315.0 L737.5 328.1 L713.3 341.3 L686.8 354.4 L672.6 367.5 L680.1 380.6 L707.4 393.8 L742.1 406.9 L768.8 420.0 L778.5 433.1 L773.4 446.3 L763.8 459.4 L760.4 472.5 L767.8 485.6 L782.1 498.8 L796.0 511.9 L804.3 525.0 L806.5 538.1 L805.7 551.3 L803.5 564.4 L797.7 577.5 L783.8 590.6 L760.5 603.8 L732.7 616.9 L710.8 630.0 L1200 630 Z" fill="#25412c"/><path d="M1200 0 L881.3 0.0 L876.2 13.1 L871.0 26.3 L867.7 39.4 L866.0 52.5 L863.4 65.6 L857.5 78.8 L849.0 91.9 L842.5 105.0 L844.0 118.1 L856.6 131.3 L877.5 144.4 L898.9 157.5 L912.3 170.6 L913.5 183.8 L905.1 196.9 L894.7 210.0 L889.8 223.1 L893.1 236.3 L901.4 249.4 L908.3 262.5 L908.9 275.6 L902.1 288.8 L891.0 301.9 L879.6 315.0 L870.0 328.1 L861.6 341.3 L853.2 354.4 L845.5 367.5 L841.7 380.6 L845.2 393.8 L856.8 406.9 L872.4 420.0 L885.2 433.1 L889.5 446.3 L885.0 459.4 L877.2 472.5 L874.2 485.6 L881.1 498.8 L897.0 511.9 L914.7 525.0 L925.8 538.1 L925.4 551.3 L914.8 564.4 L899.7 577.5 L886.1 590.6 L877.0 603.8 L871.5 616.9 L867.0 630.0 L1200 630 Z" fill="#25412c"/><path d="M1200 0 L1024.3 0.0 L1033.9 13.1 L1037.4 26.3 L1034.9 39.4 L1030.9 52.5 L1029.7 65.6 L1031.3 78.8 L1031.4 91.9 L1025.9 105.0 L1015.1 118.1 L1004.1 131.3 L997.7 144.4 L996.3 157.5 L995.9 170.6 L992.2 183.8 L985.2 196.9 L979.7 210.0 L980.1 223.1 L986.5 236.3 L994.3 249.4 L998.6 262.5 L999.0 275.6 L999.4 288.8 L1004.3 301.9 L1013.4 315.0 L1022.3 328.1 L1026.0 341.3 L1024.1 354.4 L1020.7 367.5 L1020.6 380.6 L1024.2 393.8 L1027.4 406.9 L1025.7 420.0 L1018.7 433.1 L1010.9 446.3 L1007.1 459.4 L1008.3 472.5 L1010.3 485.6 L1008.4 498.8 L1002.2 511.9 L995.8 525.0 L994.0 538.1 L997.4 551.3 L1002.0 564.4 L1002.9 577.5 L999.1 590.6 L994.8 603.8 L994.8 616.9 L999.7 630.0 L1200 630 Z" fill="#16241a"/><rect width="1200" height="630" fill="#0a0d0b" opacity="0.28"/><text x="80" y="330" font-family="'Geist Mono',ui-monospace,monospace" font-size="150" font-weight="600" letter-spacing="-6" fill="#e8f0e4">ribbit<tspan fill="#5c9e63">.</tspan></text><text x="86" y="392" font-family="'Geist Mono',ui-monospace,monospace" font-size="30" fill="#8b9a8a">deterministic generative marks from any seed</text></svg>